<?xml version="1.0" encoding="UTF-8"?>
<svg xmlns="http://www.w3.org/2000/svg" version="1.1" viewBox="0 0 573 112">
  <defs>
    <style>
      .cls-1 {
        fill: #4382ff;
      }
    </style>
  </defs>
  <!-- Generator: Adobe Illustrator 28.7.1, SVG Export Plug-In . SVG Version: 1.2.0 Build 142)  -->
  <g>
    <g id="Ebene_1">
      <path class="cls-1" d="M17,40v32c0,2.21-1.79,4-4,4s-4-1.79-4-4v-32c0-2.21,1.79-4,4-4s4,1.79,4,4ZM33,4c-2.21,0-4,1.79-4,4v96c0,2.21,1.79,4,4,4s4-1.79,4-4V8c0-2.21-1.79-4-4-4ZM53,20c-2.21,0-4,1.79-4,4v64c0,2.21,1.79,4,4,4s4-1.79,4-4V24c0-2.21-1.79-4-4-4ZM73,36c-2.21,0-4,1.79-4,4v32c0,2.21,1.79,4,4,4s4-1.79,4-4v-32c0-2.21-1.79-4-4-4ZM93,28c-2.21,0-4,1.79-4,4v48c0,2.21,1.79,4,4,4s4-1.79,4-4v-48c0-2.21-1.79-4-4-4Z"/>
      <g>
        <path class="cls-1" d="M143.69,82.24c-2.48,0-4.82-.23-7.01-.7-2.19-.47-4.24-1.17-6.15-2.11-1.91-.94-3.7-2.11-5.36-3.52l4.46-5.48c1.95,1.69,4.09,2.95,6.43,3.8,2.34.84,4.89,1.27,7.63,1.27,3.7,0,6.57-.69,8.61-2.07,2.04-1.38,3.06-3.32,3.06-5.8v-.04c0-1.95-.52-3.43-1.55-4.46-1.03-1.03-2.39-1.8-4.06-2.3-1.68-.5-3.51-.92-5.5-1.25-1.92-.33-3.86-.71-5.82-1.16-1.96-.44-3.76-1.14-5.4-2.09-1.64-.95-2.96-2.31-3.96-4.1-1-1.78-1.49-4.16-1.49-7.14v-.04c0-4.76,1.58-8.44,4.75-11.06,3.16-2.61,7.63-3.92,13.39-3.92,2.74,0,5.43.44,8.05,1.32,2.62.88,5.18,2.22,7.66,4.03l-4.08,5.7c-1.95-1.45-3.88-2.53-5.82-3.23s-3.87-1.05-5.82-1.05c-3.49,0-6.21.7-8.14,2.09-1.93,1.39-2.9,3.37-2.9,5.92v.04c0,1.92.56,3.39,1.69,4.39,1.12,1.01,2.6,1.75,4.41,2.23,1.82.48,3.77.93,5.85,1.35,1.88.38,3.75.83,5.62,1.35,1.88.53,3.58,1.29,5.12,2.29,1.53,1,2.77,2.36,3.69,4.1.93,1.73,1.39,4,1.39,6.79v.07c0,4.71-1.64,8.36-4.92,10.93-3.28,2.58-7.9,3.87-13.85,3.87Z"/>
        <path class="cls-1" d="M186.69,82.24c-5.02,0-8.9-1.38-11.65-4.15-2.75-2.77-4.13-6.67-4.13-11.71v-6.01c0-4.99,1.38-8.85,4.13-11.58,2.75-2.73,6.64-4.1,11.65-4.1,2.86,0,5.44.5,7.73,1.51,2.3,1.01,4.12,2.45,5.48,4.32l-5.17,4.64c-1.01-1.17-2.2-2.07-3.59-2.71-1.38-.63-2.84-.95-4.36-.95-2.77,0-4.91.77-6.43,2.32-1.52,1.55-2.29,3.73-2.29,6.54v6.01c0,2.88.76,5.11,2.29,6.68,1.52,1.57,3.67,2.36,6.43,2.36,1.52,0,2.98-.34,4.36-1.02,1.38-.68,2.58-1.64,3.59-2.88l5.17,4.99c-1.36,1.83-3.19,3.24-5.5,4.24-2.31,1-4.88,1.49-7.72,1.49Z"/>
        <path class="cls-1" d="M207.82,81.72v-36.49h7.17v36.49h-7.17ZM227.89,53.87c-.63-.77-1.43-1.36-2.39-1.76-.96-.4-2.07-.6-3.34-.6-2.27,0-4.04.63-5.29,1.88s-1.88,2.99-1.88,5.22l-.74-7.03c1.1-2.16,2.55-3.84,4.34-5.06,1.79-1.22,3.77-1.83,5.92-1.83,1.66,0,3.17.24,4.52.72,1.35.48,2.53,1.19,3.53,2.13l-4.68,6.33Z"/>
        <path class="cls-1" d="M252.78,82.24c-5.09,0-9.02-1.42-11.81-4.25-2.79-2.84-4.18-6.87-4.18-12.09v-4.11c0-5.44,1.34-9.64,4.03-12.62,2.68-2.98,6.46-4.46,11.34-4.46,4.59,0,8.15,1.69,10.67,5.06,2.52,3.38,3.78,8.11,3.78,14.2v2.39h-24.61v-5.77h17.79c-.21-2.95-.98-5.26-2.3-6.93-1.32-1.66-3.1-2.5-5.33-2.5-2.7,0-4.79.89-6.29,2.67-1.5,1.78-2.25,4.3-2.25,7.56v4.64c0,3.02.8,5.34,2.41,6.96,1.6,1.62,3.86,2.43,6.77,2.43,1.45,0,2.89-.29,4.32-.88,1.43-.59,2.71-1.41,3.83-2.46l4.71,4.71c-1.81,1.73-3.83,3.08-6.08,4.03s-4.51,1.42-6.79,1.42Z"/>
        <path class="cls-1" d="M288.11,82.24c-4.48,0-7.83-.93-10.07-2.78-2.24-1.85-3.36-4.69-3.36-8.51s1.02-6.35,3.08-8.14c2.05-1.79,5.13-2.69,9.23-2.69h10.37l.49,5.77h-10.83c-1.85,0-3.25.42-4.18,1.25-.94.83-1.41,2.1-1.41,3.81,0,1.85.62,3.22,1.86,4.11,1.24.89,3.11,1.34,5.59,1.34,2.72,0,4.76-.29,6.12-.88,1.36-.59,2.04-1.5,2.04-2.74l.74,5.13c-.63.98-1.42,1.79-2.36,2.43-.94.63-2.01,1.11-3.22,1.42-1.21.32-2.57.47-4.1.47ZM297.04,81.72v-23.13c0-2.39-.64-4.25-1.92-5.57-1.28-1.32-3.09-1.99-5.43-1.99-1.43,0-2.84.22-4.24.65-1.39.43-2.64,1.06-3.74,1.88l-5.24-3.59c1.38-1.66,3.2-2.96,5.47-3.88,2.26-.93,4.78-1.39,7.54-1.39,4.57,0,8.11,1.18,10.62,3.55,2.51,2.37,3.76,5.71,3.76,10.02v23.45h-6.82Z"/>
        <path class="cls-1" d="M314.76,81.72v-36.49h7.17v36.49h-7.17ZM336.56,81.72v-22.11c0-2.58-.63-4.57-1.9-5.98s-3.06-2.11-5.38-2.11-4.15.62-5.43,1.86c-1.28,1.24-1.92,2.99-1.92,5.24l-.74-7.03c1.12-2.2,2.6-3.9,4.41-5.1,1.82-1.2,3.83-1.79,6.03-1.79,3.84,0,6.82,1.3,8.93,3.88,2.11,2.59,3.16,6.25,3.16,10.99v22.15h-7.17ZM358.36,81.72v-22.11c0-2.58-.66-4.57-1.99-5.98-1.32-1.41-3.21-2.11-5.64-2.11-2.23,0-3.95.68-5.17,2.04-1.22,1.36-1.83,3.28-1.83,5.77l-1.44-7.03c1.17-2.44,2.69-4.31,4.57-5.62,1.88-1.31,3.95-1.97,6.22-1.97,3.96,0,7.03,1.3,9.19,3.88,2.17,2.59,3.25,6.25,3.25,10.99v22.15h-7.17Z"/>
        <path class="cls-1" d="M394.36,54.19h17.72v8.93c0,3.84-.74,7.2-2.23,10.07-1.49,2.87-3.57,5.1-6.24,6.68s-5.81,2.37-9.42,2.37-6.81-.74-9.53-2.23c-2.72-1.49-4.83-3.59-6.33-6.29-1.5-2.71-2.25-5.87-2.25-9.47v-15.08c0-3.84.74-7.19,2.23-10.05,1.49-2.86,3.57-5.08,6.24-6.66s5.81-2.37,9.42-2.37c2.98,0,5.69.63,8.14,1.9,2.45,1.27,4.51,3.04,6.17,5.31,1.66,2.27,2.79,4.93,3.38,7.98h-7.77c-.66-2.65-1.93-4.68-3.83-6.08s-3.93-2.11-6.08-2.11c-3.19,0-5.74,1.11-7.66,3.32-1.92,2.21-2.88,5.14-2.88,8.77v15.08c0,3.33.98,5.99,2.95,8s4.57,3.01,7.8,3.01,5.74-1.05,7.66-3.16c1.92-2.11,2.88-5.05,2.88-8.82v-2.21h-10.37v-6.86Z"/>
        <path class="cls-1" d="M430.14,45.22v22.18c0,2.55.65,4.53,1.95,5.92,1.3,1.39,3.13,2.09,5.5,2.09s4.19-.63,5.47-1.88c1.28-1.25,1.92-3.02,1.92-5.29l.49,7.63c-.66,1.64-1.81,3.11-3.45,4.41-1.64,1.3-3.79,1.95-6.43,1.95-4.03,0-7.14-1.29-9.33-3.88-2.19-2.59-3.29-6.24-3.29-10.95v-22.18h7.17ZM444.98,81.72v-36.49h7.14v36.49h-7.14Z"/>
        <path class="cls-1" d="M474.69,82.24c-4.48,0-7.83-.93-10.07-2.78-2.24-1.85-3.36-4.69-3.36-8.51s1.02-6.35,3.08-8.14c2.05-1.79,5.13-2.69,9.23-2.69h10.37l.49,5.77h-10.83c-1.85,0-3.25.42-4.18,1.25-.94.83-1.41,2.1-1.41,3.81,0,1.85.62,3.22,1.86,4.11,1.24.89,3.11,1.34,5.59,1.34,2.72,0,4.76-.29,6.12-.88,1.36-.59,2.04-1.5,2.04-2.74l.74,5.13c-.63.98-1.42,1.79-2.36,2.43-.94.63-2.01,1.11-3.22,1.42-1.21.32-2.57.47-4.1.47ZM483.62,81.72v-23.13c0-2.39-.64-4.25-1.92-5.57-1.28-1.32-3.09-1.99-5.43-1.99-1.43,0-2.84.22-4.24.65-1.39.43-2.64,1.06-3.74,1.88l-5.24-3.59c1.38-1.66,3.2-2.96,5.47-3.88,2.26-.93,4.78-1.39,7.54-1.39,4.57,0,8.11,1.18,10.62,3.55,2.51,2.37,3.76,5.71,3.76,10.02v23.45h-6.82Z"/>
        <path class="cls-1" d="M501.34,81.72v-36.49h7.17v36.49h-7.17ZM521.41,53.87c-.63-.77-1.43-1.36-2.39-1.76-.96-.4-2.07-.6-3.34-.6-2.27,0-4.04.63-5.29,1.88s-1.88,2.99-1.88,5.22l-.74-7.03c1.1-2.16,2.55-3.84,4.34-5.06,1.79-1.22,3.77-1.83,5.92-1.83,1.66,0,3.17.24,4.52.72,1.35.48,2.53,1.19,3.53,2.13l-4.68,6.33Z"/>
        <path class="cls-1" d="M542.93,82.35c-4.03,0-7.14-1.29-9.33-3.88-2.19-2.59-3.29-6.24-3.29-10.95v-8.05c0-4.73,1.07-8.4,3.22-10.99,2.14-2.59,5.16-3.88,9.05-3.88,2.16,0,4.13.56,5.92,1.69s3.24,2.71,4.34,4.75l-.74,7.45c0-1.55-.28-2.87-.84-3.97-.56-1.1-1.38-1.94-2.44-2.51-1.07-.57-2.36-.86-3.88-.86-2.37,0-4.2.74-5.5,2.21s-1.95,3.55-1.95,6.22v7.95c0,2.65.65,4.69,1.95,6.13s3.13,2.16,5.5,2.16c1.52,0,2.82-.3,3.88-.9,1.07-.6,1.88-1.46,2.44-2.58s.84-2.47.84-4.04l.49,7.7c-.66,1.64-1.79,3.11-3.39,4.41-1.61,1.3-3.7,1.95-6.28,1.95ZM552.1,81.72V30.6h7.17v51.12h-7.17Z"/>
      </g>
    </g>
  </g>
</svg>